<svg xmlns="http://www.w3.org/2000/svg" viewBox="0 0 18 29">
    <path class="cls-1" d="M10.53 2a.66.66 0 0 1 .08-.94l1.1-.91a.7.7 0 0 1 1 .07.66.66 0 0 1-.08.94l-1.1.92a.7.7 0 0 1-1-.08zM12.52 4.83a.67.67 0 1 0 0 1.34H14a.67.67 0 1 0 0-1.33zM11.65 3.59a.69.69 0 0 0 .64.44 1 1 0 0 0 .24 0l2.4-.86a.65.65 0 0 0 .4-.85.68.68 0 0 0-.87-.4l-2.4.85a.67.67 0 0 0-.41.82zM17.91 26.17l-2.19-5.84v-.08a1.49 1.49 0 0 0-1.2-.87c-.33 0-.66-.06-1-.08h-.47a9 9 0 0 1-1.41-.21 3.26 3.26 0 0 1-1.82-1 12.72 12.72 0 0 1-1.87-5 3.14 3.14 0 0 1 .72-1.92 7.84 7.84 0 0 1 .94-1.05l.33-.31.62-.59a1.45 1.45 0 0 0 .39-1.59l-2.2-5.88A1.53 1.53 0 0 0 6.81.87l-1.51.54a5.08 5.08 0 0 0-1.08.5C1.49 3.54 0 6.7 0 10.8c0 6.37 3.62 11.67 4.86 13.3a.63.63 0 0 0 .89.09.59.59 0 0 0 .1-.78c-1.46-2.09-4.48-7-4.48-12.61 0-3.62 1.25-6.37 3.56-7.75a3.28 3.28 0 0 1 .83-.38l1.52-.54a.15.15 0 0 1 .19.08l2.19 5.84a.14.14 0 0 1 0 .16l-.66.6-.36.33a9.09 9.09 0 0 0-1.09 1.23 4.43 4.43 0 0 0-1 2.7 13.54 13.54 0 0 0 2.21 5.83 4.6 4.6 0 0 0 2.53 1.45 8.56 8.56 0 0 0 1.65.25h.49c.31 0 .6 0 .88.07a.13.13 0 0 1 .12.09v.06l2.17 5.78a.16.16 0 0 1-.09.19l-1.38.49a4.2 4.2 0 0 1-1.23.31A7.61 7.61 0 0 1 8.44 26a.69.69 0 0 0-.94 0 .65.65 0 0 0 .09 1 9.3 9.3 0 0 0 5.57 2 7.54 7.54 0 0 0 .94-.06 5.82 5.82 0 0 0 1.53-.38l1.37-.49a1.48 1.48 0 0 0 .91-1.9z" style="fill: #fff;"/>
</svg>
