<svg xmlns="http://www.w3.org/2000/svg" viewBox="0 0 33.35 28.68"><defs><style>.cls-1,.cls-2{fill:none;stroke:#000;stroke-miterlimit:10;stroke-width:2px;}.cls-2{stroke-linecap:round;}</style></defs><title>Ресурс 9</title><g id="Слой_2" data-name="Слой 2"><g id="Capa_1" data-name="Capa 1"><rect class="cls-1" x="13.2" y="23.62" width="6.94" height="4.06" rx="2.03"/><path class="cls-2" d="M4.3,13.38A12.38,12.38,0,1,1,20.14,25.26"/><path class="cls-2" d="M21.64,2a10.84,10.84,0,0,1-1.06,1.2A12.37,12.37,0,0,1,10.3,6.73"/><path class="cls-2" d="M4.3,13.44A1.07,1.07,0,0,1,3.24,14.5H2.06A1.07,1.07,0,0,1,1,13.44V9.62A1.07,1.07,0,0,1,2.06,8.55"/><path class="cls-2" d="M29.05,13.44a1.07,1.07,0,0,0,1.06,1.06h1.17a1.07,1.07,0,0,0,1.07-1.06V9.62a1.07,1.07,0,0,0-1.07-1.07"/><path class="cls-2" d="M18.7,12.51a2.68,2.68,0,0,1,4.94,0"/><path class="cls-2" d="M18.09,18.59a1.75,1.75,0,0,1-3.23,0"/><path class="cls-2" d="M9.7,12.51a2.68,2.68,0,0,1,4.94,0"/></g></g></svg>