<svg xmlns="http://www.w3.org/2000/svg" viewBox="0 0 33.1 28.43"><defs><style>.cls-1,.cls-2{fill:none;stroke:#fff;stroke-miterlimit:10;stroke-width:1.75px;}.cls-2{stroke-linecap:round;}</style></defs><title>Ресурс 9</title><g id="Слой_2" data-name="Слой 2"><g id="Capa_1" data-name="Capa 1"><rect class="cls-1" x="13.08" y="23.49" width="6.94" height="4.06" rx="2.03"/><path class="cls-2" d="M4.17,13.25A12.38,12.38,0,1,1,20,25.13"/><path class="cls-2" d="M21.51,1.88a13,13,0,0,1-1.05,1.19A12.34,12.34,0,0,1,10.17,6.6"/><path class="cls-2" d="M4.17,13.31a1.07,1.07,0,0,1-1.06,1.07H1.94A1.06,1.06,0,0,1,.88,13.31V9.49A1.06,1.06,0,0,1,1.94,8.43"/><path class="cls-2" d="M28.92,13.31A1.07,1.07,0,0,0,30,14.38h1.17a1.07,1.07,0,0,0,1.06-1.07V9.49a1.07,1.07,0,0,0-1.06-1.06"/><path class="cls-2" d="M18.58,12.39a2.68,2.68,0,0,1,4.94,0"/><path class="cls-2" d="M18,18.46a1.75,1.75,0,0,1-3.23,0"/><path class="cls-2" d="M9.58,12.39a2.68,2.68,0,0,1,4.94,0"/></g></g></svg>