<svg xmlns="http://www.w3.org/2000/svg" viewBox="0 0 30.47 32"><defs><style>.cls-1{fill:#fff}</style></defs><g><path class="cls-1" d="M18.51 5.64a1.18 1.18 0 0 0 .37.05 1.43 1.43 0 0 0 1.38-1.06L21 1.8a1.43 1.43 0 1 0-2.76-.74l-.74 2.83a1.43 1.43 0 0 0 1.01 1.75zM17.9 27.56h-5.23a1.43 1.43 0 1 0 0 2.85h.53a.53.53 0 0 0 0 .15A1.44 1.44 0 0 0 14.62 32H16a1.44 1.44 0 0 0 1.43-1.44v-.15h.53a1.43 1.43 0 1 0 0-2.85zM29 10.11h-2.9a1.43 1.43 0 0 0 0 2.85H29a1.43 1.43 0 1 0 0-2.85zM27.11 5.68a1.42 1.42 0 0 0 0-2 1.44 1.44 0 0 0-2 0L23 5.74a1.43 1.43 0 1 0 2 2zM13 3.89l-.76-2.83a1.43 1.43 0 0 0-2.76.74l.76 2.83a1.43 1.43 0 0 0 1.38 1.06 1.22 1.22 0 0 0 .38-.05 1.43 1.43 0 0 0 1-1.75zM0 11.53A1.43 1.43 0 0 0 1.43 13h2.93a1.43 1.43 0 1 0 0-2.85H1.43A1.43 1.43 0 0 0 0 11.53zM5.43 7.76a1.42 1.42 0 0 0 1 .42 1.43 1.43 0 0 0 1-2.44L5.37 3.66a1.43 1.43 0 0 0-2 2zM22 10.88c-.86-1.5-2.74-3.3-6.76-3.3s-5.89 1.79-6.75 3.3c-2.41 4.19.1 10.71 2 13.9a1.47 1.47 0 0 0 1.27.72h7a1.44 1.44 0 0 0 1.23-.71c1.95-3.21 4.46-9.72 2.01-13.91zm-4 11.76h-5.44c-1.84-3.49-2.92-8-1.56-10.33.72-1.25 2.12-1.87 4.28-1.87s3.56.62 4.28 1.88c1.37 2.38.29 6.83-1.56 10.32z"/></g></svg>