<svg xmlns="http://www.w3.org/2000/svg" viewBox="0 0 18.89 26.52"><defs><style>.cls-1{fill:none;stroke:#fff;stroke-linecap:round;stroke-miterlimit:10;}</style></defs><title>Ресурс 4</title><g id="Слой_2" data-name="Слой 2"><g id="Capa_1" data-name="Capa 1"><path class="cls-1" d="M9.45.5a9,9,0,0,0-8.95,9,8.29,8.29,0,0,0,.08,1.11c.76,7,8.29,15,8.29,15a1.44,1.44,0,0,0,.38.31h0l.25.08.25-.08h0a1.44,1.44,0,0,0,.38-.31s7.42-8.07,8.17-15.06a9.84,9.84,0,0,0,.07-1.1A8.94,8.94,0,0,0,9.45.5Z"/><path class="cls-1" d="M7.46,13.38A4.12,4.12,0,0,1,6.85,13"/><path class="cls-1" d="M5,9.45a4.4,4.4,0,1,1,2.42,3.93"/></g></g></svg>