<svg xmlns="http://www.w3.org/2000/svg" viewBox="0 0 361.91 386.19"><title>Ресурс 1</title><g id="Слой_2" data-name="Слой 2"><g id="Capa_1" data-name="Capa 1"><path d="M36.49,131.93a9,9,0,0,0,9.72,8.21,7.4,7.4,0,0,0,1-.13,78.1,78.1,0,0,0,153.72,0,7.64,7.64,0,0,0,1,.13,9,9,0,0,0,9.73-8.21L212.75,118a9,9,0,0,0-12.54-9,78,78,0,0,0-22.47-39.44l-.09-.11a9.2,9.2,0,0,0-1.09-1A78,78,0,0,0,47.85,109a8.91,8.91,0,0,0-4.32-.7A9,9,0,0,0,35.32,118ZM124,66.09a59.67,59.67,0,0,1,32.38,9.49A59.84,59.84,0,0,1,124,85.05a60.52,60.52,0,0,1-15.87-2.12,9,9,0,1,0-4.74,17.36A78.16,78.16,0,0,0,124,103.05a77.79,77.79,0,0,0,46.26-15.18A60.06,60.06,0,1,1,124,66.09ZM132.42,124a9,9,0,0,1,9-9h10a9,9,0,0,1,0,18h-10A9,9,0,0,1,132.42,124Zm-10.89,27h5a9,9,0,0,1,0,18h-5a9,9,0,1,1,0-18Zm-33.4-27a9,9,0,0,1,9-9h10a9,9,0,0,1,0,18h-10A9,9,0,0,1,88.13,124ZM279.75,92.78a9.11,9.11,0,0,1-8.93,9.22h-.07a9.13,9.13,0,0,1-9-9.08c-.08-9.74,7-15.86,12.75-20.66,4.48-3.77,7.42-6.42,7.42-8.84a8.9,8.9,0,1,0-17.8,0,9,9,0,1,1-18,0,26.9,26.9,0,1,1,53.8,0c0,11-8,17.72-13.85,22.62C283.86,87.9,279.74,91.51,279.75,92.78ZM248.49,376.29a9,9,0,0,1-1.36,5.85h0a9,9,0,0,1-4.69,3.63,7,7,0,0,1-.89.17,9.72,9.72,0,0,1-2.28.07H164a9,9,0,1,1,0-18h64.07l-23.77-97.65c-3.65-15-23-27.72-43.36-29.32-7,11.05-21.07,18.31-36.69,18.31S94.54,252,87.59,241c-20.41,1.6-39.71,14.37-43.36,29.39L20.45,368H84.53a9,9,0,0,1,0,18H9.28c-.09,0-.18.16-.27.16a9,9,0,0,1-2-.06,9.07,9.07,0,0,1-.89-.26,9,9,0,0,1-4.67-3.64A8.74,8.74,0,0,1,.3,379.63a9,9,0,0,1-.25-3.28A8.58,8.58,0,0,1,.31,375L26.74,266.33C32.65,242,61.26,223,91.86,223H93.1a9,9,0,0,1,8.51,6c2.12,6.18,10.58,12.38,22.66,12.38s20.55-6.22,22.67-12.39a9,9,0,0,1,8.51-6h1.24c30.6,0,59.2,19,65.12,43.33L248.24,375A9.47,9.47,0,0,1,248.49,376.29Zm31.36-257.55a9,9,0,0,1-9,9,8.92,8.92,0,0,1-8.94-9v-.07a9,9,0,1,1,17.94,0Zm82.06-79.69v86.87c0,21.27-17.76,39.08-39,39.08H239.66l-26.91,35.66a8.76,8.76,0,0,1-7.21,3.37,8.93,8.93,0,0,1-7.19-14.3L228,150.35a8.77,8.77,0,0,1,7.2-3.35h87.72a21.42,21.42,0,0,0,21-21.08V39.05a21.4,21.4,0,0,0-21-21H218.06a20.76,20.76,0,0,0-20.59,20.76,9,9,0,1,1-18,.06A38.83,38.83,0,0,1,218.06,0H322.88A39.42,39.42,0,0,1,361.91,39.05Z"/></g></g></svg>