<svg version="1" xmlns="http://www.w3.org/2000/svg" width="684" height="684" viewBox="0 0 513.000000 513.000000"><path d="M233 1.7C199.8 5.1 171.9 13 143.5 27c-62.9 30.9-109.6 84.8-131 151C-8.2 242.2-2.6 313 28 373c13.2 25.7 25.7 42.8 47.5 64.5 16.2 16.3 27.9 25.8 44.1 36 101.3 63.7 233.9 48.7 317.9-35.9 38.7-38.9 62.7-86.5 72.2-142.6 1.6-9.6 1.8-22.4 2-152.3L512.1 1l-137.8.2c-75.8 0-139.4.3-141.3.5zM429.4 39c10.6 2.7 16.9 6.3 24.6 14 20.5 20.4 21.3 51.7 1.8 72.5-7.4 8-13.7 12.1-23.3 15.1-32.2 10.2-66.1-13.2-68.2-47.1-1-15.5 4.3-29.2 15.7-40.5 7.6-7.6 14-11.3 24.2-14 9.4-2.5 15.7-2.5 25.2 0zM260 103.5c32.6 2.2 74 20.1 96.4 41.8 8.7 8.4 10.5 15.3 6 23.7-.7 1.4-11.8 12.9-24.6 25.7-20.6 20.5-23.8 23.4-27.8 24.4-6.6 1.7-10.9.5-18.6-5.3-8.5-6.3-20.9-12.2-30-14.4-5.2-1.2-10.2-1.5-19.9-1.1-22.1.7-35.3 6.5-51 22.2-7.7 7.6-9.8 10.5-13.8 18.5-6 12.3-7.9 20.6-7.9 34.5.1 29.5 15.6 54.7 41.7 67.5 12.1 6 18.8 7.5 34 7.5 10.8 0 14.3-.4 20.5-2.4 9.5-2.9 20-8.4 26.8-13.9 8.5-6.9 15-8.7 21.9-6.2 1.5.6 13.5 11.8 26.6 24.8 20.7 20.6 23.9 24.3 25.1 28.3 2.4 7.9.6 13.2-6.9 20.4-20 19.4-52.1 35.4-83.7 41.7-9.5 1.9-14.4 2.2-31.3 2.2-17.8 0-21.4-.3-32.6-2.7-36.7-7.8-67.8-25.3-92.3-51.9-23.3-25.3-38.2-56.3-43.8-91.3-1.9-12-1.6-38.9.6-51.5 12.3-70.8 65.2-125.7 134.9-140 11-2.3 29.1-3.9 36.7-3.4 2.5.2 8.3.6 13 .9z"/></svg>