<svg xmlns="http://www.w3.org/2000/svg" viewBox="0 0 60.35 40.61"><title>Asset 1</title><g id="Layer_2" data-name="Layer 2"><g id="Слой_1" data-name="Слой 1"><path d="M59.92,18s0,0,0,0h0a7.3,7.3,0,0,0-1.67-2.7L58,15,44.67,2a7.2,7.2,0,0,0-10.18.13,7.37,7.37,0,0,0,.12,10.32l.74.86H7.2A7.2,7.2,0,0,0,0,20.55H0a7.2,7.2,0,0,0,7.2,7.2H35.35l-.74.59a7.12,7.12,0,0,0-.12,10.11,7.19,7.19,0,0,0,10.18.09L58,25.54c.07-.07,0-.15.06-.22a4.3,4.3,0,0,0,1.51-2.71h0a.88.88,0,0,0,.16,0,6.92,6.92,0,0,0,.5-2c0-.1.14-.21.14-.31v-.36A6.26,6.26,0,0,0,59.92,18Z"/></g></g></svg>