<svg xmlns="http://www.w3.org/2000/svg" viewBox="0 0 83.51 140.04"><title>Ресурс 1</title><g id="Слой_2" data-name="Слой 2"><g id="Capa_1" data-name="Capa 1"><g id="directionswalk"><path d="M51.39,23.13A11.57,11.57,0,1,0,39.83,11.56,11.52,11.52,0,0,0,51.39,23.13ZM55.28,63H77.73a5.78,5.78,0,0,0,5.78-5.79h0a5.78,5.78,0,0,0-5.78-5.78H63.64a5.77,5.77,0,0,1-4.94-2.78L47.54,30.19a12,12,0,0,0-9.64-5.78,5.8,5.8,0,0,0-3.21.64L12.79,32A18.28,18.28,0,0,0,0,49.38V63.6a5.78,5.78,0,0,0,5.78,5.78h0a5.78,5.78,0,0,0,5.78-5.78V49.78a5.8,5.8,0,0,1,4-5.49l9.53-3.18L1.82,132.84A5.78,5.78,0,0,0,7.43,140h.06a5.79,5.79,0,0,0,5.45-3.83L30.19,88l13.64,18.38A5.77,5.77,0,0,1,45,109.83v24.43A5.78,5.78,0,0,0,50.75,140h0a5.78,5.78,0,0,0,5.78-5.78V100.43a5.77,5.77,0,0,0-.73-2.81L40.47,70,45,51.39l5.37,8.8A5.78,5.78,0,0,0,55.28,63Z"/></g></g></g></svg>