<svg xmlns="http://www.w3.org/2000/svg" viewBox="0 0 8.08 16"><g data-name="Layer 2"><g data-name="Layer 1"><g data-name="&lt;Group&gt;"><path data-name="&lt;Path&gt;" d="M.26 8.52H2v7.22a.26.26 0 0 0 .26.26h3a.26.26 0 0 0 .26-.26V8.56h2a.25.25 0 0 0 .25-.23l.31-2.66a.24.24 0 0 0-.08-.2.25.25 0 0 0-.2-.09H5.5V3.71q0-.71.81-.71h1.51a.26.26 0 0 0 .26-.26V.26A.26.26 0 0 0 7.82 0H5.64A4 4 0 0 0 3 1a2.74 2.74 0 0 0-.9 2.43v1.95H.26a.26.26 0 0 0-.26.26v2.62a.26.26 0 0 0 .26.26z" fill="#fff"/></g></g></g></svg>