<svg xmlns="http://www.w3.org/2000/svg" viewBox="0 0 16 16"><defs><style>.cls-1{fill:#fff}</style></defs><g id="Layer_2" data-name="Layer 2"><g id="Layer_1-2" data-name="Layer 1"><path class="cls-1" d="M11.58 0H4.42A4.42 4.42 0 0 0 0 4.42v7.16A4.42 4.42 0 0 0 4.42 16h7.16A4.42 4.42 0 0 0 16 11.58V4.42A4.42 4.42 0 0 0 11.58 0zm3 11.58a3 3 0 0 1-3 3H4.42a3 3 0 0 1-3-3V4.42a3 3 0 0 1 3-3h7.16a3 3 0 0 1 3 3v7.16z"/><path class="cls-1" d="M8 3.88A4.12 4.12 0 1 0 12.12 8 4.13 4.13 0 0 0 8 3.88zm0 6.82A2.7 2.7 0 1 1 10.7 8 2.7 2.7 0 0 1 8 10.7zM12.3 2.67a1 1 0 0 0-.74.31A1 1 0 1 0 13 4.45a1 1 0 0 0-.73-1.78z"/></g></g></svg>